<svg id="Group_35" data-name="Group 35" xmlns="http://www.w3.org/2000/svg" width="32.733" height="32.733" viewBox="0 0 32.733 32.733">
  <g id="Group_34" data-name="Group 34">
    <path id="Path_14" data-name="Path 14" d="M32.094,31.455H29.7V6.653a.639.639,0,0,0-.639-.639H25.508V3.708a.639.639,0,0,0-.639-.639H21.353V.639A.639.639,0,0,0,20.714,0H12.019a.639.639,0,0,0-.639.639V3.069H7.865a.639.639,0,0,0-.639.639V6.014H3.677a.639.639,0,0,0-.639.639v24.8H.639a.639.639,0,1,0,0,1.279H32.094a.639.639,0,1,0,0-1.279ZM12.659,1.279h7.416v1.79H12.659Zm6.393,30.176H14.628l4.424-4.424Zm0-6.228c-.014.012-.028.024-.042.038l-5.329,5.329v-2.71l4.1-4.1h1.269Zm-5.37.848V23.783h2.292Zm14.736,5.379H20.33V23.783h.224a.639.639,0,1,0,0-1.279H12.179a.639.639,0,1,0,0,1.279H12.4v7.672H4.316V7.292h7.1a.639.639,0,1,0,0-1.279H8.5V4.347H24.229V6.014H16.464a.639.639,0,1,0,0,1.279H28.417V31.455Z"/>
  </g>
</svg>
